<svg width="56" height="56" viewBox="0 0 56 56" fill="none" xmlns="http://www.w3.org/2000/svg">
<path fill-rule="evenodd" clip-rule="evenodd" d="M37.989 18.011C38.152 18.1736 38.2813 18.3667 38.3695 18.5793C38.4577 18.7919 38.5031 19.0198 38.5031 19.25C38.5031 19.4802 38.4577 19.7081 38.3695 19.9207C38.2813 20.1333 38.152 20.3264 37.989 20.489L27.489 30.989C27.3264 31.152 27.1333 31.2813 26.9207 31.3695C26.7081 31.4577 26.4802 31.5031 26.25 31.5031C26.0198 31.5031 25.7919 31.4577 25.5793 31.3695C25.3667 31.2813 25.1736 31.152 25.011 30.989L19.761 25.739C19.5983 25.5763 19.4692 25.3831 19.3812 25.1705C19.2931 24.958 19.2478 24.7301 19.2478 24.5C19.2478 24.2699 19.2931 24.042 19.3812 23.8295C19.4692 23.6169 19.5983 23.4237 19.761 23.261C19.9237 23.0983 20.1169 22.9692 20.3295 22.8812C20.542 22.7931 20.7699 22.7478 21 22.7478C21.2301 22.7478 21.458 22.7931 21.6705 22.8812C21.8831 22.9692 22.0763 23.0983 22.239 23.261L26.25 27.2755L35.511 18.011C35.6736 17.848 35.8667 17.7187 36.0793 17.6305C36.2919 17.5423 36.5198 17.4969 36.75 17.4969C36.9802 17.4969 37.2081 17.5423 37.4207 17.6305C37.6333 17.7187 37.8264 17.848 37.989 18.011Z" fill="white"/>
<path d="M7 7C7 5.14348 7.7375 3.36301 9.05025 2.05025C10.363 0.737498 12.1435 0 14 0L42 0C43.8565 0 45.637 0.737498 46.9497 2.05025C48.2625 3.36301 49 5.14348 49 7V54.25C48.9998 54.5665 48.9138 54.8771 48.7511 55.1486C48.5884 55.4202 48.3551 55.6425 48.076 55.7919C47.7969 55.9413 47.4826 56.0122 47.1664 55.9971C46.8502 55.982 46.544 55.8814 46.2805 55.706L28 45.8535L9.7195 55.706C9.45597 55.8814 9.14981 55.982 8.83362 55.9971C8.51743 56.0122 8.20307 55.9413 7.924 55.7919C7.64493 55.6425 7.41161 55.4202 7.2489 55.1486C7.08618 54.8771 7.00016 54.5665 7 54.25V7ZM14 3.5C13.0717 3.5 12.1815 3.86875 11.5251 4.52513C10.8687 5.1815 10.5 6.07174 10.5 7V50.981L27.0305 42.294C27.3177 42.1029 27.655 42.0009 28 42.0009C28.345 42.0009 28.6823 42.1029 28.9695 42.294L45.5 50.981V7C45.5 6.07174 45.1312 5.1815 44.4749 4.52513C43.8185 3.86875 42.9283 3.5 42 3.5H14Z" fill="white"/>
</svg>
