<svg width="37" height="38" viewBox="0 0 37 38" fill="none" xmlns="http://www.w3.org/2000/svg">
<path d="M4.41667 37.75C3.27083 37.75 2.29028 37.3424 1.475 36.5271C0.659722 35.7118 0.251389 34.7306 0.25 33.5833V4.41667C0.25 3.27083 0.658333 2.29028 1.475 1.475C2.29167 0.659722 3.27222 0.251389 4.41667 0.25H16.9167C17.5069 0.25 18.0021 0.45 18.4021 0.85C18.8021 1.25 19.0014 1.74444 19 2.33333C18.9986 2.92222 18.7986 3.41736 18.4 3.81875C18.0014 4.22014 17.5069 4.41944 16.9167 4.41667H4.41667V33.5833H16.9167C17.5069 33.5833 18.0021 33.7833 18.4021 34.1833C18.8021 34.5833 19.0014 35.0778 19 35.6667C18.9986 36.2556 18.7986 36.7507 18.4 37.1521C18.0014 37.5535 17.5069 37.7528 16.9167 37.75H4.41667ZM29.7812 21.0833H14.8333C14.2431 21.0833 13.7486 20.8833 13.35 20.4833C12.9514 20.0833 12.7514 19.5889 12.75 19C12.7486 18.4111 12.9486 17.9167 13.35 17.5167C13.7514 17.1167 14.2458 16.9167 14.8333 16.9167H29.7812L25.875 13.0104C25.4931 12.6285 25.3021 12.1597 25.3021 11.6042C25.3021 11.0486 25.4931 10.5625 25.875 10.1458C26.2569 9.72917 26.7431 9.5118 27.3333 9.49375C27.9236 9.47569 28.4271 9.67569 28.8438 10.0937L36.2917 17.5417C36.7083 17.9583 36.9167 18.4444 36.9167 19C36.9167 19.5556 36.7083 20.0417 36.2917 20.4583L28.8438 27.9062C28.4271 28.3229 27.9326 28.5229 27.3604 28.5062C26.7882 28.4896 26.2931 28.2722 25.875 27.8542C25.4931 27.4375 25.3111 26.9431 25.3292 26.3708C25.3472 25.7986 25.5465 25.3208 25.9271 24.9375L29.7812 21.0833Z" fill="white"/>
</svg>
