<svg width="257" height="81" viewBox="0 0 257 81" fill="none" xmlns="http://www.w3.org/2000/svg">
<path d="M11.7419 14.2234C11.7419 14.2234 39.9691 11.4718 65.2414 14.2234C65.2414 14.2234 68.1186 45.4608 65.2414 67.5517C65.2414 67.5517 37.092 70.1871 11.7419 67.5517C11.7419 67.5517 8.16487 39.6474 11.7419 14.2234Z" fill="#A57F12"/>
<path d="M34.9924 15.7349C34.9924 15.7349 39.5026 4.61196 41.5632 2.13158C41.5632 2.13158 44.9847 11.0067 46.19 15.9287C46.19 15.9287 55.4824 16.3163 56.1045 16.51C56.1045 16.51 61.5867 14.0684 66.0191 13.1383C66.0191 13.1383 65.9413 14.0297 62.7142 20.6957L63.3752 33.0201L75.6614 37.3608L63.6085 40.5C63.6085 40.5 63.0641 60.7694 62.4421 64.9938C62.4421 64.9938 46.1511 66.0014 43.6628 66.0014C43.6628 66.0014 41.8743 71.9311 40.2024 73.8301C40.2024 73.8301 37.7529 68.7531 37.0142 66.1565C37.0142 66.1565 19.2458 65.6139 14.1525 64.9938C14.1525 64.9938 12.9861 50.7316 12.8306 40.4612L2.33282 38.1359L13.1416 33.2526C13.1416 33.2526 13.9581 18.6029 14.1914 16.8201C14.1914 16.8201 32.9706 15.5799 34.9924 15.7349Z" fill="#FAB720"/>
<path d="M35.3424 26.6254C35.3424 26.6254 38.725 11.9368 41.2522 8.33253C41.2522 8.33253 44.1294 16.6263 45.1791 27.2067C45.1791 27.2067 54.0439 19.8818 62.131 16.51C62.131 16.51 57.1154 25.6565 50.8946 33.4077L69.4017 37.322L49.5726 40.5775C49.5726 40.5775 57.271 47.9799 61.8977 59.4517C61.8977 59.4517 50.9334 53.2895 44.907 48.91L40.1635 67.7067C40.1635 67.7067 36.4699 56.6612 36.2366 47.8636C36.2366 47.8636 26.5554 58.5215 17.0685 61.312C17.0685 61.312 21.462 50.499 30.249 40.5L8.35931 37.9033C8.35931 37.9033 16.4853 33.9115 27.4496 32.2837L19.2847 17.4014C19.2847 17.4014 30.91 23.5636 35.3424 26.6254Z" fill="white"/>
<path d="M210.46 75.8842C210.732 76.078 211.277 76.233 211.704 76.233C212.637 76.233 213.182 75.6517 213.182 74.7603C213.182 73.9464 212.715 73.4813 212.015 72.9388C211.315 72.4737 210.382 71.6598 210.382 70.4971C210.382 69.1794 211.315 68.2105 212.715 68.2105C213.259 68.2105 213.726 68.3656 213.92 68.5206L213.687 69.3732C213.454 69.2182 213.104 69.0632 212.637 69.0632C211.782 69.0632 211.354 69.722 211.354 70.3033C211.354 71.156 211.821 71.5048 212.637 72.0861C213.687 72.8225 214.154 73.6364 214.154 74.6053C214.154 76.1167 213.104 77.0469 211.704 77.0469C211.121 77.0469 210.499 76.8531 210.227 76.6593L210.46 75.8842Z" fill="#1A5FA5"/>
<path d="M215.359 77.0469V68.3268H216.292L217.886 72.4349C218.236 73.3651 218.703 74.5278 219.014 75.4967H219.053C218.975 74.1402 218.936 72.9775 218.936 71.466V68.3268H219.83V77.0469H218.897L217.225 72.8612C216.875 71.9699 216.487 71.001 216.175 69.877H216.137C216.214 71.0397 216.253 72.1636 216.253 74.0239V77.0469H215.359Z" fill="#1A5FA5"/>
<path d="M222.396 68.3268V77.0469H221.385V68.3268H222.396Z" fill="#1A5FA5"/>
<path d="M227.179 72.9H224.962V76.1943H227.451V77.0469H223.952V68.3268H227.295V69.1794H224.962V72.0474H227.179V72.9Z" fill="#1A5FA5"/>
<path d="M228.384 75.8842C228.656 76.078 229.2 76.233 229.628 76.233C230.561 76.233 231.106 75.6517 231.106 74.7603C231.106 73.9464 230.639 73.4813 229.939 72.9388C229.239 72.4737 228.306 71.6598 228.306 70.4971C228.306 69.1794 229.239 68.2105 230.639 68.2105C231.183 68.2105 231.65 68.3656 231.844 68.5206L231.611 69.3732C231.378 69.2182 231.028 69.0632 230.561 69.0632C229.706 69.0632 229.278 69.722 229.278 70.3033C229.278 71.156 229.745 71.5048 230.561 72.0861C231.611 72.8225 232.078 73.6364 232.078 74.6053C232.078 76.1167 231.028 77.0469 229.628 77.0469C229.045 77.0469 228.423 76.8531 228.151 76.6593L228.384 75.8842Z" fill="#1A5FA5"/>
<path d="M234.955 77.0469V76.388L235.655 75.4191C236.666 74.0239 237.871 72.4349 237.871 70.8459C237.871 69.9158 237.482 69.3344 236.666 69.3344C236.043 69.3344 235.655 69.6445 235.46 69.7995L235.227 69.0632C235.499 68.8306 236.121 68.4818 236.86 68.4818C238.26 68.4818 238.882 69.5282 238.882 70.8072C238.882 72.3962 237.871 73.9076 236.782 75.3416L236.238 76.1167V76.1555H239.037V77.0469H234.955Z" fill="#1A5FA5"/>
<path d="M244.092 68.6368V69.2182L241.37 77.0469H240.398L243.081 69.5282V69.4895H240.048V68.5981H244.092V68.6368Z" fill="#1A5FA5"/>
<path d="M245.141 75.9617C245.414 76.1167 245.841 76.3105 246.347 76.3105C247.241 76.3105 247.824 75.6904 247.824 74.644C247.824 73.5201 247.124 72.9 246.113 72.9H245.88V72.1636H246.075C246.658 72.1636 247.591 71.6986 247.591 70.6522C247.591 69.7995 247.124 69.3732 246.463 69.3732C246.036 69.3732 245.686 69.567 245.414 69.7608L245.18 69.0244C245.491 68.7919 246.075 68.5593 246.697 68.5593C247.902 68.5593 248.563 69.412 248.563 70.4971C248.563 71.3498 248.135 72.0861 247.319 72.4737V72.5124C248.058 72.7062 248.796 73.4038 248.796 74.7215C248.796 76.078 247.902 77.2019 246.386 77.2019C245.841 77.2019 245.258 77.0469 244.908 76.8144L245.141 75.9617Z" fill="#1A5FA5"/>
<path d="M251.984 69.6445L250.546 70.4584L250.352 69.6833L252.14 68.6368H252.956V77.0469H251.984V69.6445Z" fill="#1A5FA5"/>
<path d="M226.984 36.7407H99.1841V37.632H226.984V36.7407Z" fill="#F8B51D"/>
<path d="M143.508 12.1306L143.897 18.5254H143.508C143.002 16.5876 142.264 15.2311 141.292 14.3785C140.32 13.5258 139.192 13.0995 137.831 13.0995C136.704 13.0995 135.693 13.4096 134.799 14.0684C133.904 14.6885 133.166 15.7349 132.66 17.0914C132.155 18.4866 131.883 20.2306 131.883 22.2847C131.883 23.9899 132.116 25.4627 132.621 26.7029C133.127 27.9431 133.827 28.912 134.838 29.5708C135.848 30.2297 136.937 30.5785 138.22 30.5785C139.309 30.5785 140.281 30.3072 141.136 29.8033C141.992 29.2995 142.886 28.2531 143.897 26.7029L144.285 26.9742C143.43 28.6407 142.458 29.8809 141.292 30.656C140.164 31.4311 138.803 31.8187 137.248 31.8187C134.449 31.8187 132.271 30.656 130.716 28.3306C129.589 26.6253 129.005 24.5713 129.005 22.2459C129.005 20.3856 129.394 18.6416 130.133 17.0526C130.911 15.5024 131.921 14.2622 133.282 13.4096C134.604 12.5569 136.082 12.0919 137.637 12.0919C138.881 12.0919 140.086 12.4407 141.292 13.0995C141.642 13.2933 141.914 13.4096 142.03 13.4096C142.264 13.4096 142.458 13.332 142.614 13.1383C142.847 12.9057 143.002 12.5569 143.08 12.0919H143.508V12.1306Z" fill="#1A5FA5"/>
<path d="M153.928 23.8737H148.251L146.735 27.9431C146.463 28.6407 146.346 29.1832 146.346 29.4933C146.346 29.7646 146.463 29.9971 146.696 30.2297C146.929 30.4234 147.979 30.5397 148.757 30.6172V31.121H143.469V30.6172C144.169 30.501 144.597 30.3072 144.791 30.0746C145.219 29.6483 145.646 28.7957 146.152 27.478L151.867 12.6732H152.295L157.971 27.6718C158.438 28.8732 158.866 29.6483 159.216 29.9971C159.604 30.3459 160.615 30.5397 161.276 30.6172V31.121H153.345V30.6172C154.006 30.5785 155.211 30.4622 155.444 30.2684C155.677 30.0746 155.794 29.8421 155.794 29.5321C155.794 29.1445 155.639 28.5244 155.328 27.6718L153.928 23.8737ZM153.578 23.0986L151.051 16.2388L148.601 23.0986H153.578Z" fill="#1A5FA5"/>
<path d="M95.1405 13.4871V12.7895H102.722V13.4871H101.867C100.934 13.332 100.039 13.8746 99.7673 14.7273C99.6118 15.1536 99.4174 16.0062 99.4174 17.3627V27.478C99.4174 29.9971 99.1841 31.9349 98.7175 33.2914C98.251 34.6866 97.3567 35.8493 95.9959 36.8569C94.6351 37.8258 92.8077 38.3297 90.4749 38.3297C87.9476 38.3297 86.6257 37.8646 85.3427 36.8957C84.0207 35.9655 83.0876 34.6866 82.5433 33.0976C82.1545 32.0124 81.9989 29.9584 81.9989 26.9354V17.2076C81.9989 15.6574 81.8045 14.6497 81.4157 14.1847C81.0269 13.7196 80.4048 13.4871 79.5106 13.4871H78.6552V12.7895H89.0363V13.4871H88.142C87.17 13.4871 86.5091 13.7971 86.0814 14.456C85.8092 14.8823 85.6537 15.8124 85.6537 17.2076V29.0282C85.6537 29.9971 85.7315 31.121 85.887 32.3612C86.0425 33.6014 86.3535 34.6091 86.7812 35.3067C87.2089 36.0043 87.831 36.5856 88.6475 37.0119C89.464 37.477 90.4749 37.7096 91.6413 37.7096C93.1576 37.7096 94.0908 37.3608 95.2961 36.6244C96.5014 35.9268 97.3178 34.9966 97.7455 33.8727C98.1732 32.7488 98.4065 29.9584 98.4065 27.2842V17.2076C98.4065 15.6574 98.251 14.6885 97.9399 14.2622C97.5122 13.7196 96.8124 13.4483 95.957 13.4483H95.1405V13.4871Z" fill="#1A5FA5"/>
<path d="M126.906 30.3459C126.595 30.1909 126.439 29.9971 126.323 29.7646C126.206 29.4545 126.128 28.8344 126.128 27.9043V16.045C126.128 14.9211 126.245 14.2234 126.478 13.9522C126.789 13.5646 127.256 13.3708 127.878 13.2933C128.267 13.3321 128.539 13.4096 128.811 13.5258C128.811 13.2545 128.889 13.022 128.928 12.7507H128.811H120.879H115.708V13.2545H116.253C116.875 13.2545 117.341 13.4483 117.613 13.8359C117.847 14.1072 117.963 14.8048 117.963 15.9287V26.3541L108.243 12.8282H102.761V13.3321C103.228 13.3321 103.578 13.3708 103.811 13.4483C104.277 13.6033 105.522 14.0297 105.91 15.2311V28.0206C105.91 29.0282 105.794 29.6871 105.638 29.9584C105.366 30.4234 104.861 30.656 104.2 30.656H103.655V31.1598H109.176V30.656H108.321C107.699 30.656 107.232 30.4622 106.96 30.1134C106.727 29.8421 106.649 29.1445 106.649 28.0206V15.4636L118.119 31.1986H118.663V15.9287C118.663 14.9211 118.702 14.2622 118.897 13.9909C119.169 13.5258 120.024 13.2933 120.724 13.2933H121.307H121.579C122.007 13.2933 122.435 13.4096 122.823 13.6033C123.134 13.7584 123.29 13.9522 123.407 14.1847C123.523 14.4947 123.562 15.1148 123.562 16.045V27.9043C123.562 28.9895 123.446 29.6871 123.251 29.9971C122.901 30.4622 122.357 30.656 121.579 30.656H120.918V31.1598H128.85V30.656H128.189C127.722 30.656 127.295 30.5397 126.906 30.3459Z" fill="#1A5FA5"/>
<path d="M192.07 14.7273C190.32 12.8282 188.259 11.8981 185.849 11.8981C183.438 11.8981 181.377 12.7507 179.628 14.4172C177.645 16.355 176.634 18.8354 176.634 21.8971C176.634 24.8813 177.489 27.323 179.239 29.1832C180.95 31.0823 183.088 32.0124 185.615 32.0124C188.104 32.0124 190.242 31.0435 192.031 29.1057C193.78 27.1679 194.675 24.7651 194.675 21.8196C194.675 18.9904 193.819 16.6263 192.07 14.7273ZM189.892 28.8732C188.765 30.2684 187.326 31.0048 185.615 31.0048C183.982 31.0048 182.699 30.3459 181.688 29.067C180.405 27.3617 179.744 24.9588 179.744 21.8196C179.744 18.7579 180.367 16.4325 181.611 14.8435C182.622 13.5646 183.944 12.9445 185.577 12.9445C187.326 12.9445 188.687 13.6033 189.698 14.8823C190.942 16.51 191.564 18.9517 191.564 22.2459C191.564 25.2301 191.02 27.478 189.892 28.8732Z" fill="#1A5FA5"/>
<path d="M189.503 6.35597L185.499 10.2703L184.799 10.2316L187.171 6.35597H189.503Z" fill="#1A5FA5"/>
<path d="M233.011 12.1694L233.4 18.5641H233.011C232.466 16.6263 231.767 15.2699 230.795 14.4172C229.823 13.5646 228.695 13.1383 227.334 13.1383C226.207 13.1383 225.196 13.4483 224.263 14.1072C223.368 14.7273 222.669 15.7737 222.124 17.1301C221.58 18.5254 221.347 20.2694 221.347 22.3234C221.347 24.0287 221.58 25.5014 222.085 26.7416C222.591 27.9818 223.33 28.9507 224.302 29.6096C225.312 30.2684 226.44 30.6172 227.684 30.6172C228.773 30.6172 229.745 30.3459 230.6 29.8421C231.456 29.2995 232.389 28.2919 233.361 26.7416L233.75 27.0129C232.894 28.6794 231.883 29.9196 230.756 30.6947C229.628 31.4698 228.267 31.8574 226.712 31.8574C223.913 31.8574 221.735 30.6947 220.18 28.3694C219.014 26.6641 218.469 24.61 218.469 22.2847C218.469 20.3856 218.858 18.6804 219.597 17.0914C220.375 15.5411 221.386 14.301 222.746 13.4483C224.068 12.5957 225.546 12.1694 227.101 12.1694C228.345 12.1694 229.55 12.4794 230.717 13.177C231.067 13.3708 231.339 13.4871 231.494 13.4871C231.728 13.4871 231.922 13.4096 232.078 13.2158C232.272 12.9832 232.466 12.6344 232.544 12.1694H233.011Z" fill="#1A5FA5"/>
<path d="M218.547 30.6947V31.1986H210.616V30.6947H211.277C212.054 30.6947 212.599 30.501 212.948 30.0359C213.182 29.7258 213.298 29.0282 213.298 27.9431V16.0062C213.298 15.0761 213.259 14.456 213.104 14.1459C213.026 13.9134 212.832 13.7196 212.56 13.5646C212.132 13.3321 211.743 13.2158 211.315 13.2158H210.654V12.712H218.586V13.2158H217.925C217.186 13.2158 216.603 13.4483 216.292 13.8746C216.059 14.1847 215.942 14.8823 215.942 15.9675V27.9043C215.942 28.8344 215.981 29.4545 216.098 29.7646C216.175 29.9971 216.37 30.1909 216.681 30.3459C217.07 30.5785 217.497 30.656 217.925 30.656H218.547V30.6947Z" fill="#1A5FA5"/>
<path d="M175.079 12.712L175.429 17.8277H174.884C174.69 16.355 174.651 15.9287 174.223 15.1148C173.912 14.5722 173.601 13.9522 173.096 13.6809C172.59 13.4096 171.93 13.2933 171.113 13.2933H168.314V27.9043C168.314 29.0282 168.43 29.7646 168.702 30.0359C169.091 30.4234 169.636 30.6172 170.413 30.6172H171.113V31.1211H162.637V30.6172H163.337C164.192 30.6172 164.776 30.3847 165.125 29.9196C165.32 29.6096 165.436 28.9507 165.436 27.9431V13.3708H163.026C162.093 13.3708 161.432 13.4483 161.043 13.5646C160.538 13.7196 160.11 14.0684 159.721 14.5722C159.371 15.0761 159.06 17.0139 159.021 17.8277H158.477L158.788 12.7507H175.079V12.712Z" fill="#1A5FA5"/>
<path d="M209.216 25.4239L209.449 25.5014L209.41 31.2373H194.519V30.7335H195.18C195.919 30.7335 196.463 30.4622 196.735 29.9584C196.93 29.6483 197.007 28.9895 197.007 27.9431V16.0062C197.007 14.8435 196.891 14.1459 196.657 13.8359C196.308 13.4483 195.802 13.2158 195.18 13.2158H194.519V12.712H202.451V13.2158C201.518 13.2158 200.857 13.2933 200.507 13.4871C200.118 13.6809 199.885 13.9134 199.729 14.2234C199.574 14.4947 199.535 15.1923 199.535 16.2775V27.9043C199.535 28.6794 199.612 29.1833 199.729 29.4545C199.846 29.6483 200.001 29.8033 200.196 29.8809C200.39 29.9584 201.09 29.9971 202.217 29.9971H203.5C204.861 29.9971 205.794 29.8809 206.339 29.6871C206.883 29.4545 207.388 29.1057 207.816 28.5632C208.283 28.0981 208.788 26.5478 209.216 25.4239Z" fill="#1A5FA5"/>
<path d="M244.131 28.0593H236.51L234.449 33.7565C234.061 34.7253 233.905 35.4617 233.905 35.9268C233.905 36.3143 234.061 36.6244 234.372 36.9344C234.683 37.2445 236.082 37.3995 237.171 37.477V38.1746H230.056V37.477C230.989 37.2832 231.572 37.0507 231.844 36.7407C232.389 36.1593 233.011 34.9579 233.672 33.1364L241.37 12.5182H241.953L249.574 33.3689C250.196 35.0354 250.74 36.1206 251.246 36.6244C251.751 37.1282 253.112 37.3995 254.006 37.477V38.1746H243.314V37.477C244.169 37.4383 245.841 37.2832 246.152 36.9732C246.463 36.7019 246.619 36.3531 246.619 35.9268C246.619 35.3842 246.386 34.5316 245.958 33.3689L244.131 28.0593ZM243.664 26.9742L240.243 17.4402L236.938 26.9742H243.664Z" fill="#1A5FA5"/>
<path d="M80.1716 42.7866V45.1895H81.2991C81.5713 45.1895 81.7657 45.1507 81.8823 45.0344C81.9989 44.9182 82.0767 44.6856 82.1156 44.3756H82.2711V46.4684H82.1156C82.1156 46.2359 82.0767 46.0421 82.0378 45.9646C81.9989 45.8483 81.9212 45.7708 81.8045 45.6933C81.6879 45.6545 81.5324 45.6158 81.338 45.6158H80.2104V47.5536C80.2104 47.8636 80.2104 48.0574 80.2882 48.1737C80.3271 48.2512 80.4048 48.3287 80.4826 48.3675C80.6381 48.445 80.7548 48.4837 80.9103 48.4837H81.1436V48.6388H78.4997V48.4837H78.6941C78.9663 48.4837 79.1218 48.4062 79.2384 48.2512C79.3162 48.1737 79.3551 47.9411 79.3551 47.5536V43.6005C79.3551 43.2904 79.3551 43.0966 79.3162 42.9804C79.2773 42.9029 79.1995 42.8254 79.1218 42.7866C79.0051 42.7091 78.8496 42.6703 78.6941 42.6703H78.4997V42.5153H83.0876L83.1654 43.8718H83.0098C82.9321 43.6005 82.8543 43.3679 82.7377 43.2517C82.621 43.0966 82.5044 43.0191 82.3489 42.9416C82.1933 42.8641 81.9601 42.8641 81.649 42.8641H80.1716V42.7866Z" fill="#1A5FA5"/>
<path d="M87.8699 42.5928V42.4378H90.0472V42.5928H89.8139C89.5806 42.5928 89.3862 42.7091 89.2696 42.9029C89.1918 42.9804 89.1918 43.2129 89.1918 43.5617V46.0421C89.1918 46.6622 89.114 47.1273 88.9974 47.4761C88.8808 47.8249 88.6086 48.0962 88.2587 48.3675C87.9088 48.6 87.4033 48.7163 86.7812 48.7163C86.1203 48.7163 85.6148 48.6 85.2649 48.3675C84.915 48.1349 84.6817 47.8249 84.5262 47.4373C84.4095 47.166 84.3706 46.6622 84.3706 45.9258V43.523C84.3706 43.1354 84.3318 42.9029 84.2151 42.7866C84.0985 42.6703 83.9429 42.5928 83.7097 42.5928H83.4764V42.4378H86.1203V42.5928H85.9259C85.6537 42.5928 85.4982 42.6703 85.3815 42.8253C85.3038 42.9416 85.2649 43.1742 85.2649 43.523V46.1971C85.2649 46.4297 85.3038 46.7009 85.3426 47.011C85.3815 47.321 85.4593 47.5536 85.5759 47.7474C85.6926 47.9024 85.8481 48.0574 86.0814 48.1737C86.3147 48.2899 86.5479 48.3287 86.8979 48.3287C87.2867 48.3287 87.6755 48.2512 87.9865 48.0574C88.2976 47.8636 88.5308 47.6698 88.6475 47.3986C88.7641 47.1273 88.8419 46.6622 88.8419 46.0033V43.523C88.8419 43.1354 88.803 42.9029 88.7252 42.7866C88.6086 42.6703 88.4531 42.5928 88.1809 42.5928H87.8699Z" fill="#1A5FA5"/>
<path d="M90.0472 42.4378H91.719L95.4904 47.0498V43.523C95.4904 43.1354 95.4516 42.9029 95.3738 42.8253C95.2572 42.7091 95.0628 42.6316 94.8295 42.6316H94.5962V42.4765H96.7346V42.6316H96.5013C96.2292 42.6316 96.0737 42.7091 95.957 42.8641C95.8793 42.9804 95.8404 43.1742 95.8404 43.523V48.6775H95.6849L91.6024 43.7555V47.5536C91.6024 47.9411 91.6413 48.1737 91.719 48.2512C91.8357 48.3675 92.0301 48.445 92.2634 48.445H92.4966V48.6H90.3582V48.445H90.5526C90.8248 48.445 91.0192 48.3675 91.097 48.2124C91.1747 48.0962 91.2136 47.9024 91.2136 47.5536V43.2904C91.0192 43.0966 90.9026 42.9416 90.8248 42.8641C90.747 42.7866 90.5915 42.7478 90.436 42.6703C90.3582 42.6316 90.2027 42.6316 90.0472 42.6316V42.4378Z" fill="#1A5FA5"/>
<path d="M97.0457 48.5612V48.4062H97.279C97.5512 48.4062 97.7456 48.3287 97.8233 48.1737C97.9011 48.0574 97.9011 47.8636 97.9011 47.5148V43.5617C97.9011 43.1742 97.8622 42.9416 97.7844 42.8254C97.6678 42.7091 97.4734 42.6316 97.2401 42.6316H97.0068V42.4765H99.5341C100.467 42.4765 101.167 42.5928 101.634 42.7866C102.1 42.9804 102.489 43.3292 102.8 43.833C103.072 44.3368 103.228 44.8794 103.228 45.4995C103.228 46.3521 102.956 47.0498 102.45 47.6311C101.867 48.2899 100.973 48.6 99.7674 48.6H97.0457V48.5612ZM98.7953 48.1349C99.1841 48.2124 99.4952 48.2512 99.7674 48.2512C100.467 48.2512 101.05 48.0187 101.517 47.5148C101.984 47.011 102.217 46.3521 102.217 45.4995C102.217 44.6469 101.984 43.988 101.517 43.4842C101.05 42.9804 100.467 42.7478 99.7285 42.7478C99.4563 42.7478 99.1453 42.7866 98.7953 42.8641V48.1349Z" fill="#1A5FA5"/>
<path d="M107.854 46.5072H105.483L105.055 47.4761C104.938 47.7086 104.9 47.9024 104.9 48.0187C104.9 48.0962 104.938 48.1737 105.016 48.2512C105.094 48.3287 105.288 48.3675 105.599 48.4062V48.5612H103.655V48.4062C103.928 48.3675 104.083 48.29 104.161 48.2124C104.316 48.0574 104.472 47.7861 104.666 47.3211L106.844 42.2828H106.999L109.138 47.3986C109.293 47.8249 109.449 48.0574 109.604 48.2124C109.76 48.3287 109.954 48.4062 110.187 48.4062V48.5612H107.777V48.4062C108.01 48.4062 108.204 48.3675 108.282 48.29C108.36 48.2124 108.399 48.1349 108.399 48.0187C108.399 47.9024 108.321 47.6699 108.204 47.3986L107.854 46.5072ZM107.738 46.1971L106.688 43.7167L105.599 46.1971H107.738Z" fill="#1A5FA5"/>
<path d="M115.903 42.2828L116.058 44.3756H115.903C115.708 43.7555 115.436 43.2904 115.086 43.0191C114.736 42.7478 114.309 42.5928 113.842 42.5928C113.414 42.5928 113.064 42.7091 112.753 42.9029C112.403 43.0967 112.17 43.4455 111.976 43.9105C111.781 44.3756 111.704 44.9182 111.704 45.6158C111.704 46.1584 111.781 46.6622 111.976 47.0498C112.17 47.4761 112.403 47.7861 112.792 47.9799C113.142 48.2124 113.57 48.3287 114.036 48.3287C114.425 48.3287 114.775 48.2512 115.086 48.0574C115.397 47.9024 115.708 47.5536 116.097 47.0498L116.253 47.1273C115.942 47.6699 115.592 48.0574 115.164 48.3287C114.736 48.6 114.27 48.7163 113.687 48.7163C112.676 48.7163 111.859 48.3287 111.315 47.5923C110.887 47.011 110.693 46.3522 110.693 45.6158C110.693 44.9957 110.848 44.4531 111.12 43.9105C111.393 43.4067 111.781 43.0191 112.248 42.7091C112.715 42.4378 113.259 42.2828 113.842 42.2828C114.27 42.2828 114.736 42.399 115.164 42.5928C115.281 42.6703 115.397 42.7091 115.436 42.7091C115.514 42.7091 115.592 42.6703 115.669 42.6316C115.747 42.5541 115.786 42.4378 115.825 42.2828H115.903Z" fill="#1A5FA5"/>
<path d="M119.402 48.4062V48.5612H116.758V48.4062H116.991C117.264 48.4062 117.419 48.3287 117.536 48.1737C117.613 48.0962 117.652 47.8636 117.652 47.4761V43.523C117.652 43.2129 117.652 43.0191 117.575 42.9029C117.536 42.8253 117.497 42.7478 117.38 42.7091C117.225 42.6316 117.108 42.5928 116.953 42.5928H116.719V42.4378H119.363V42.5928H119.13C118.897 42.5928 118.702 42.6703 118.585 42.8253C118.508 42.9029 118.469 43.1354 118.469 43.523V47.4761C118.469 47.7861 118.508 47.9799 118.508 48.0962C118.547 48.1737 118.585 48.2512 118.702 48.2899C118.819 48.3675 118.974 48.4062 119.091 48.4062H119.402Z" fill="#1A5FA5"/>
<path d="M123.018 42.2828C123.834 42.2828 124.495 42.5928 125.079 43.1742C125.662 43.7943 125.973 44.5306 125.973 45.422C125.973 46.3521 125.662 47.1273 125.079 47.7474C124.495 48.3675 123.757 48.6775 122.94 48.6775C122.085 48.6775 121.385 48.3675 120.802 47.7861C120.218 47.166 119.946 46.3909 119.946 45.4608C119.946 44.4919 120.257 43.678 120.957 43.0579C121.502 42.5541 122.201 42.2828 123.018 42.2828ZM122.94 42.6316C122.396 42.6316 121.929 42.8254 121.618 43.2517C121.19 43.7555 120.996 44.4919 120.996 45.4608C120.996 46.4684 121.229 47.2435 121.657 47.7861C122.007 48.1737 122.435 48.4062 122.979 48.4062C123.562 48.4062 124.029 48.1737 124.418 47.7474C124.806 47.321 124.962 46.5847 124.962 45.6158C124.962 44.5694 124.767 43.7943 124.34 43.2517C123.99 42.8254 123.523 42.6316 122.94 42.6316ZM123.951 40.4225L122.59 41.9727H122.474L122.94 40.4225H123.951Z" fill="#1A5FA5"/>
<path d="M126.206 42.4378H127.878L131.649 47.0498V43.523C131.649 43.1354 131.61 42.9029 131.533 42.8253C131.416 42.7091 131.222 42.6316 130.988 42.6316H130.794V42.4765H132.932V42.6316H132.699C132.427 42.6316 132.271 42.7091 132.155 42.8641C132.077 42.9804 132.038 43.1742 132.038 43.523V48.6775H131.883L127.839 43.7555V47.5536C127.839 47.9411 127.878 48.1737 127.956 48.2512C128.072 48.3675 128.267 48.445 128.5 48.445H128.733V48.6H126.595V48.445H126.789C127.061 48.445 127.256 48.3675 127.334 48.2124C127.411 48.0962 127.45 47.9024 127.45 47.5536V43.2904C127.256 43.0966 127.139 42.9416 127.061 42.8641C126.945 42.7866 126.828 42.7478 126.634 42.6703C126.556 42.6316 126.4 42.6316 126.245 42.6316V42.4378H126.206Z" fill="#1A5FA5"/>
<path d="M139.814 42.5928V42.4378H141.992V42.5928H141.758C141.525 42.5928 141.331 42.7091 141.214 42.9029C141.136 42.9804 141.136 43.2129 141.136 43.5617V46.0421C141.136 46.6622 141.097 47.1273 140.942 47.4761C140.825 47.8249 140.592 48.0962 140.203 48.3675C139.853 48.6 139.348 48.7163 138.726 48.7163C138.065 48.7163 137.559 48.6 137.209 48.3675C136.859 48.1349 136.626 47.8249 136.47 47.4373C136.393 47.166 136.315 46.6622 136.315 45.9258V43.523C136.315 43.1354 136.276 42.9029 136.159 42.7866C136.043 42.6703 135.887 42.5928 135.654 42.5928H135.421V42.4378H138.065V42.5928H137.831C137.559 42.5928 137.404 42.6703 137.287 42.8253C137.209 42.9416 137.17 43.1742 137.17 43.523V46.1971C137.17 46.4297 137.17 46.7009 137.248 47.011C137.287 47.321 137.365 47.5536 137.481 47.7474C137.598 47.9024 137.754 48.0574 137.987 48.1737C138.181 48.2899 138.453 48.3287 138.764 48.3287C139.153 48.3287 139.542 48.2512 139.853 48.0574C140.164 47.8636 140.397 47.6698 140.514 47.3986C140.631 47.1273 140.67 46.6622 140.67 46.0033V43.523C140.67 43.1354 140.631 42.9029 140.553 42.7866C140.436 42.6703 140.242 42.5928 140.009 42.5928H139.814Z" fill="#1A5FA5"/>
<path d="M141.953 42.4378H143.624L147.396 47.0498V43.523C147.396 43.1354 147.357 42.9029 147.279 42.8253C147.163 42.7091 147.007 42.6316 146.735 42.6316H146.541V42.4765H148.679V42.6316H148.446C148.174 42.6316 148.018 42.7091 147.901 42.8641C147.824 42.9804 147.785 43.1742 147.785 43.523V48.6775H147.629L143.547 43.7555V47.5536C143.547 47.9411 143.586 48.1737 143.663 48.2512C143.78 48.3675 143.936 48.445 144.208 48.445H144.441V48.6H142.303V48.445H142.536C142.808 48.445 143.002 48.3675 143.08 48.2124C143.158 48.0962 143.197 47.9024 143.197 47.5536V43.2904C143.002 43.0966 142.886 42.9416 142.808 42.8641C142.73 42.7866 142.575 42.7478 142.38 42.6703C142.303 42.6316 142.147 42.6316 141.992 42.6316V42.4378H141.953Z" fill="#1A5FA5"/>
<path d="M151.673 48.4062V48.5612H149.029V48.4062H149.262C149.534 48.4062 149.69 48.3287 149.806 48.1737C149.884 48.0962 149.923 47.8636 149.923 47.4761V43.523C149.923 43.2129 149.884 43.0191 149.845 42.9029C149.806 42.8253 149.768 42.7478 149.651 42.7091C149.534 42.6316 149.379 42.5928 149.223 42.5928H148.99V42.4378H151.634V42.5928H151.401C151.167 42.5928 150.973 42.6703 150.856 42.8253C150.778 42.9029 150.74 43.1354 150.74 43.523V47.4761C150.74 47.7861 150.778 47.9799 150.778 48.0962C150.817 48.1737 150.895 48.2512 150.973 48.2899C151.09 48.3675 151.245 48.4062 151.401 48.4062H151.673Z" fill="#1A5FA5"/>
<path d="M158.516 42.4378V42.5928C158.282 42.6316 158.127 42.7091 158.01 42.7866C157.855 42.9416 157.699 43.1741 157.583 43.4454L155.444 48.6775H155.289L152.995 43.3679C152.878 43.0966 152.8 42.9416 152.761 42.8641C152.684 42.7866 152.606 42.7091 152.489 42.6316C152.373 42.5928 152.217 42.5541 152.023 42.5153V42.3603H154.55V42.5153C154.278 42.5541 154.083 42.5928 154.006 42.6703C153.928 42.7478 153.889 42.8253 153.889 42.9416C153.889 43.0966 153.967 43.3292 154.122 43.6392L155.677 47.2435L157.116 43.678C157.272 43.3292 157.349 43.0966 157.349 42.9416C157.349 42.8641 157.31 42.7866 157.233 42.7091C157.155 42.6316 156.999 42.5928 156.805 42.5541C156.805 42.5541 156.766 42.5541 156.727 42.5541V42.399H158.516V42.4378Z" fill="#1A5FA5"/>
<path d="M160.576 42.7866V45.2282H161.937C162.287 45.2282 162.52 45.1507 162.637 45.0732C162.793 44.9182 162.87 44.6856 162.909 44.3368H163.065V46.4684H162.909C162.87 46.1584 162.831 45.9646 162.793 45.8871C162.754 45.7708 162.637 45.6933 162.52 45.6545C162.404 45.6158 162.209 45.577 161.937 45.577H160.576V47.5923C160.576 47.8636 160.576 48.0187 160.615 48.0962C160.654 48.1737 160.693 48.2124 160.732 48.2512C160.81 48.2899 160.887 48.3287 161.082 48.3287H162.132C162.482 48.3287 162.715 48.2899 162.909 48.2512C163.065 48.2124 163.22 48.0962 163.376 47.9799C163.57 47.7861 163.765 47.5148 163.959 47.1273H164.153L163.609 48.6775H158.866V48.5225H159.099C159.254 48.5225 159.371 48.4837 159.527 48.4062C159.604 48.3675 159.682 48.2899 159.721 48.1737C159.76 48.0962 159.76 47.8636 159.76 47.5923V43.6005C159.76 43.2129 159.721 42.9804 159.643 42.8641C159.527 42.7478 159.332 42.6703 159.099 42.6703H158.866V42.5153H163.609L163.687 43.8718H163.492C163.415 43.5617 163.376 43.3292 163.298 43.2129C163.22 43.0966 163.104 43.0191 162.948 42.9416C162.831 42.9029 162.598 42.8641 162.287 42.8641H160.576V42.7866Z" fill="#1A5FA5"/>
<path d="M170.608 48.5612H168.975L166.914 45.6933C166.758 45.6933 166.642 45.6933 166.525 45.6933C166.486 45.6933 166.447 45.6933 166.409 45.6933C166.37 45.6933 166.331 45.6933 166.253 45.6933V47.4761C166.253 47.8636 166.292 48.0962 166.37 48.2124C166.486 48.3287 166.642 48.4062 166.875 48.4062H167.108V48.5612H164.464V48.4062H164.698C164.97 48.4062 165.125 48.3287 165.242 48.1349C165.32 48.0574 165.32 47.8249 165.32 47.4761V43.523C165.32 43.1354 165.281 42.9029 165.203 42.7866C165.087 42.6703 164.892 42.5928 164.659 42.5928H164.464V42.4378H166.72C167.381 42.4378 167.847 42.4765 168.158 42.5928C168.469 42.7091 168.741 42.8641 168.936 43.1354C169.13 43.4067 169.247 43.678 169.247 44.0268C169.247 44.4143 169.13 44.7244 168.858 44.9957C168.625 45.267 168.236 45.4608 167.692 45.577L168.975 47.321C169.247 47.7086 169.519 47.9799 169.713 48.1349C169.908 48.2512 170.18 48.3675 170.53 48.4062V48.5612H170.608ZM166.214 45.422C166.253 45.422 166.331 45.422 166.37 45.422C166.408 45.422 166.447 45.422 166.486 45.422C167.069 45.422 167.497 45.3057 167.808 45.0344C168.119 44.7631 168.236 44.4531 168.236 44.0655C168.236 43.678 168.119 43.3679 167.886 43.1354C167.653 42.9029 167.303 42.7866 166.914 42.7866C166.72 42.7866 166.486 42.8253 166.214 42.8641V45.422Z" fill="#1A5FA5"/>
<path d="M174.768 42.2828V44.4144H174.612C174.573 44.0268 174.457 43.678 174.34 43.4455C174.185 43.2129 173.99 43.0191 173.757 42.8641C173.485 42.7091 173.213 42.6316 172.94 42.6316C172.629 42.6316 172.357 42.7478 172.163 42.9416C171.968 43.1354 171.852 43.3292 171.852 43.6005C171.852 43.7943 171.929 43.9493 172.046 44.1043C172.241 44.3368 172.668 44.6469 173.368 44.9957C173.951 45.3057 174.34 45.5383 174.534 45.6933C174.729 45.8483 174.923 46.0421 175.04 46.2746C175.157 46.5072 175.195 46.7397 175.195 46.9722C175.195 47.4373 175.001 47.8249 174.651 48.1737C174.301 48.5225 173.835 48.6775 173.251 48.6775C173.057 48.6775 172.901 48.6775 172.746 48.6388C172.668 48.6388 172.474 48.5612 172.163 48.4837C171.852 48.4062 171.657 48.3287 171.58 48.3287C171.502 48.3287 171.463 48.3675 171.385 48.4062C171.346 48.445 171.307 48.5612 171.307 48.6775H171.152V46.5847H171.307C171.385 47.011 171.502 47.3598 171.618 47.5536C171.735 47.7861 171.968 47.9411 172.241 48.0962C172.513 48.2512 172.824 48.3287 173.135 48.3287C173.524 48.3287 173.796 48.2124 174.029 48.0187C174.262 47.8249 174.34 47.5923 174.34 47.3211C174.34 47.166 174.301 47.011 174.223 46.856C174.146 46.701 174.029 46.5459 173.835 46.4297C173.718 46.3522 173.407 46.1584 172.863 45.8483C172.357 45.5383 171.968 45.3057 171.735 45.1507C171.502 44.9569 171.346 44.7632 171.23 44.5694C171.113 44.3756 171.074 44.1431 171.074 43.8718C171.074 43.4455 171.23 43.0579 171.58 42.7478C171.929 42.4378 172.357 42.2828 172.863 42.2828C173.213 42.2828 173.562 42.3603 173.912 42.5153C174.068 42.5928 174.185 42.6316 174.262 42.6316C174.34 42.6316 174.418 42.6316 174.457 42.5541C174.496 42.5153 174.534 42.399 174.573 42.2828H174.768Z" fill="#1A5FA5"/>
<path d="M178.539 48.4062V48.5612H175.895V48.4062H176.129C176.362 48.4062 176.556 48.3287 176.673 48.1737C176.751 48.0962 176.79 47.8636 176.79 47.4761V43.523C176.79 43.2129 176.79 43.0191 176.712 42.9029C176.673 42.8253 176.634 42.7478 176.517 42.7091C176.362 42.6316 176.245 42.5928 176.09 42.5928H175.856V42.4378H178.5V42.5928H178.267C177.995 42.5928 177.839 42.6703 177.723 42.8253C177.645 42.9029 177.606 43.1354 177.606 43.523V47.4761C177.606 47.7861 177.606 47.9799 177.684 48.0962C177.723 48.1737 177.762 48.2512 177.878 48.2899C177.995 48.3675 178.15 48.4062 178.306 48.4062H178.539Z" fill="#1A5FA5"/>
<path d="M184.177 42.4378L184.255 43.8718H184.099C184.06 43.6005 184.021 43.4454 183.944 43.3292C183.866 43.1742 183.71 43.0191 183.555 42.9416C183.399 42.8641 183.205 42.8253 182.933 42.8253H182.077V47.5148C182.077 47.9024 182.116 48.1349 182.194 48.2124C182.311 48.3287 182.505 48.4062 182.738 48.4062H182.972V48.5612H180.367V48.4062H180.6C180.872 48.4062 181.028 48.3287 181.144 48.1737C181.222 48.0574 181.261 47.8636 181.261 47.5148V42.8253H180.522C180.25 42.8253 180.017 42.8641 179.9 42.9029C179.744 42.9804 179.589 43.0579 179.511 43.2517C179.395 43.4067 179.317 43.6392 179.317 43.9105H179.161L179.239 42.4765H184.177V42.4378Z" fill="#1A5FA5"/>
<path d="M187.987 46.5072H185.615L185.188 47.4761C185.071 47.7086 185.032 47.9024 185.032 48.0187C185.032 48.0962 185.071 48.1737 185.149 48.2512C185.227 48.3287 185.421 48.3675 185.732 48.4062V48.5612H183.788V48.4062C184.06 48.3675 184.216 48.29 184.294 48.2124C184.449 48.0574 184.605 47.7861 184.799 47.3211L186.976 42.2828H187.132L189.27 47.3986C189.426 47.8249 189.62 48.0574 189.737 48.2124C189.892 48.3287 190.087 48.4062 190.32 48.4062V48.5612H187.871V48.4062C188.104 48.4062 188.298 48.3675 188.376 48.29C188.454 48.2124 188.493 48.1349 188.493 48.0187C188.493 47.9024 188.415 47.6699 188.298 47.3986L187.987 46.5072ZM187.871 46.1971L186.821 43.7167L185.732 46.1971H187.871Z" fill="#1A5FA5"/>
<path d="M196.735 48.5612H195.102L193.003 45.6933C192.847 45.6933 192.731 45.6933 192.614 45.6933C192.575 45.6933 192.536 45.6933 192.497 45.6933C192.458 45.6933 192.42 45.6933 192.342 45.6933V47.4761C192.342 47.8636 192.381 48.0962 192.458 48.2124C192.575 48.3287 192.731 48.4062 192.964 48.4062H193.197V48.5612H190.553V48.4062H190.787C191.059 48.4062 191.214 48.3287 191.331 48.1349C191.409 48.0574 191.409 47.8249 191.409 47.4761V43.523C191.409 43.1354 191.37 42.9029 191.292 42.7866C191.175 42.6703 190.981 42.5928 190.748 42.5928H190.514V42.4378H192.769C193.43 42.4378 193.897 42.4765 194.208 42.5928C194.519 42.7091 194.791 42.8641 194.986 43.1354C195.219 43.4067 195.297 43.678 195.297 44.0268C195.297 44.4143 195.18 44.7244 194.947 44.9957C194.713 45.267 194.325 45.4608 193.819 45.577L195.102 47.321C195.374 47.7086 195.647 47.9799 195.841 48.1349C196.035 48.2512 196.308 48.3675 196.658 48.4062V48.5612H196.735ZM192.342 45.422C192.42 45.422 192.458 45.422 192.497 45.422C192.536 45.422 192.575 45.422 192.614 45.422C193.197 45.422 193.664 45.3057 193.936 45.0344C194.247 44.7631 194.364 44.4531 194.364 44.0655C194.364 43.678 194.247 43.3679 194.014 43.1354C193.78 42.9029 193.43 42.7866 193.042 42.7866C192.886 42.7866 192.614 42.8253 192.342 42.8641V45.422Z" fill="#1A5FA5"/>
<path d="M199.535 48.4062V48.5612H196.891V48.4062H197.085C197.357 48.4062 197.513 48.3287 197.629 48.1737C197.707 48.0962 197.746 47.8636 197.746 47.4761V43.523C197.746 43.2129 197.746 43.0191 197.707 42.9029C197.668 42.8253 197.629 42.7478 197.513 42.7091C197.396 42.6316 197.241 42.5928 197.085 42.5928H196.891V42.4378H199.535V42.5928H199.301C199.068 42.5928 198.874 42.6703 198.757 42.8253C198.679 42.9029 198.64 43.1354 198.64 43.523V47.4761C198.64 47.7861 198.679 47.9799 198.718 48.0962C198.757 48.1737 198.796 48.2512 198.913 48.2899C199.068 48.3675 199.185 48.4062 199.34 48.4062H199.535Z" fill="#1A5FA5"/>
<path d="M204.006 46.5072H201.634L201.207 47.4761C201.09 47.7086 201.051 47.9024 201.051 48.0187C201.051 48.0962 201.09 48.1737 201.168 48.2512C201.245 48.3287 201.44 48.3675 201.751 48.4062V48.5612H199.807V48.4062C200.079 48.3675 200.235 48.29 200.312 48.2124C200.468 48.0574 200.623 47.7861 200.818 47.3211L202.995 42.2828H203.151L205.289 47.3986C205.444 47.8249 205.639 48.0574 205.756 48.2124C205.872 48.3287 206.105 48.4062 206.339 48.4062V48.5612H203.889V48.4062C204.123 48.4062 204.317 48.3675 204.395 48.29C204.472 48.2124 204.511 48.1349 204.511 48.0187C204.511 47.9024 204.434 47.6699 204.317 47.3986L204.006 46.5072ZM203.889 46.1971L202.839 43.7167L201.751 46.1971H203.889Z" fill="#1A5FA5"/>
<path d="M213.882 42.2828L214.037 44.3756H213.882C213.687 43.7555 213.415 43.2904 213.065 43.0191C212.715 42.7478 212.287 42.5928 211.821 42.5928C211.393 42.5928 211.043 42.7091 210.693 42.9029C210.343 43.0967 210.11 43.4455 209.916 43.9105C209.721 44.3756 209.644 44.9182 209.644 45.6158C209.644 46.1584 209.721 46.6622 209.916 47.0498C210.11 47.4761 210.343 47.7861 210.732 47.9799C211.082 48.2124 211.51 48.3287 211.976 48.3287C212.365 48.3287 212.715 48.2512 213.026 48.0574C213.337 47.9024 213.648 47.5536 214.037 47.0498L214.193 47.1273C213.882 47.6699 213.532 48.0574 213.104 48.3287C212.676 48.6 212.21 48.7163 211.626 48.7163C210.616 48.7163 209.838 48.3287 209.255 47.5923C208.827 47.011 208.633 46.3522 208.633 45.6158C208.633 44.9957 208.788 44.4531 209.06 43.9105C209.333 43.4067 209.721 43.0191 210.188 42.7091C210.693 42.4378 211.199 42.2828 211.782 42.2828C212.21 42.2828 212.676 42.399 213.104 42.5928C213.221 42.6703 213.337 42.7091 213.376 42.7091C213.454 42.7091 213.532 42.6703 213.609 42.6316C213.687 42.5541 213.765 42.4378 213.765 42.2828H213.882Z" fill="#1A5FA5"/>
<path d="M218.742 46.5072H216.37L215.942 47.4761C215.826 47.7086 215.787 47.9024 215.787 48.0187C215.787 48.0962 215.826 48.1737 215.903 48.2512C215.981 48.3287 216.175 48.3675 216.487 48.4062V48.5612H214.542V48.4062C214.815 48.3675 214.97 48.29 215.048 48.2124C215.203 48.0574 215.359 47.7861 215.553 47.3211L217.731 42.2828H217.886L220.025 47.3986C220.219 47.8249 220.375 48.0574 220.491 48.2124C220.647 48.3287 220.841 48.4062 221.074 48.4062V48.5612H218.664V48.4062C218.897 48.4062 219.053 48.3675 219.169 48.29C219.247 48.2124 219.286 48.1349 219.286 48.0187C219.286 47.9024 219.208 47.6699 219.092 47.3986L218.742 46.5072ZM218.625 46.1971L217.575 43.7167L216.525 46.1971H218.625Z" fill="#1A5FA5"/>
<path d="M225.546 42.4378L225.623 43.8718H225.468C225.429 43.6005 225.39 43.4454 225.312 43.3292C225.235 43.1742 225.079 43.0191 224.924 42.9416C224.768 42.8641 224.574 42.8253 224.302 42.8253H223.446V47.5148C223.446 47.9024 223.485 48.1349 223.563 48.2124C223.679 48.3287 223.835 48.4062 224.107 48.4062H224.302V48.5612H221.697V48.4062H221.93C222.202 48.4062 222.357 48.3287 222.474 48.1737C222.552 48.0574 222.591 47.8636 222.591 47.5148V42.8253H221.852C221.541 42.8253 221.347 42.8641 221.23 42.9029C221.074 42.9804 220.919 43.0579 220.841 43.2517C220.724 43.4067 220.686 43.6392 220.647 43.9105H220.452L220.53 42.4765H225.546V42.4378Z" fill="#1A5FA5"/>
<path d="M229.239 42.2828C230.056 42.2828 230.717 42.5928 231.3 43.1742C231.883 43.7943 232.194 44.5306 232.194 45.422C232.194 46.3521 231.883 47.1273 231.3 47.7474C230.717 48.3675 229.978 48.6775 229.162 48.6775C228.306 48.6775 227.606 48.3675 227.023 47.7861C226.44 47.166 226.168 46.3909 226.168 45.4608C226.168 44.4919 226.518 43.678 227.179 43.0579C227.762 42.5541 228.462 42.2828 229.239 42.2828ZM229.162 42.6316C228.617 42.6316 228.151 42.8254 227.84 43.2517C227.412 43.7555 227.218 44.4919 227.218 45.4608C227.218 46.4684 227.451 47.2435 227.879 47.7861C228.228 48.1737 228.656 48.4062 229.2 48.4062C229.784 48.4062 230.25 48.1737 230.639 47.7474C231.028 47.321 231.222 46.5847 231.222 45.6158C231.222 44.5694 231.028 43.7943 230.6 43.2517C230.211 42.8254 229.745 42.6316 229.162 42.6316ZM230.211 40.4225L228.889 41.9727H228.734L229.2 40.4225H230.211Z" fill="#1A5FA5"/>
<path d="M237.91 46.8947L238.065 46.9335L237.56 48.6H232.777V48.445H233.011C233.283 48.445 233.438 48.3675 233.555 48.1737C233.594 48.0574 233.633 47.8636 233.633 47.5148V43.5617C233.633 43.1742 233.594 42.9416 233.516 42.8254C233.4 42.7091 233.205 42.6316 233.011 42.6316H232.777V42.4765H235.577V42.6316C235.266 42.6316 235.033 42.6703 234.877 42.7091C234.76 42.7866 234.644 42.8641 234.605 42.9416C234.566 43.0191 234.527 43.2517 234.527 43.6392V47.5148C234.527 47.7861 234.566 47.9411 234.605 48.0187C234.644 48.0962 234.683 48.1349 234.76 48.1737C234.838 48.2124 235.071 48.2124 235.46 48.2124H235.888C236.354 48.2124 236.704 48.1737 236.899 48.0962C237.093 48.0187 237.249 47.9024 237.404 47.7086C237.599 47.5536 237.754 47.2435 237.91 46.8947Z" fill="#1A5FA5"/>
<path d="M241.098 48.4062V48.5612H238.454V48.4062H238.687C238.959 48.4062 239.115 48.3287 239.232 48.1737C239.309 48.0962 239.348 47.8636 239.348 47.4761V43.523C239.348 43.2129 239.309 43.0191 239.309 42.9029C239.27 42.8253 239.232 42.7478 239.115 42.7091C238.998 42.6316 238.843 42.5928 238.687 42.5928H238.454V42.4378H241.098V42.5928H240.865C240.631 42.5928 240.437 42.6703 240.32 42.8253C240.242 42.9029 240.204 43.1354 240.204 43.523V47.4761C240.204 47.7861 240.242 47.9799 240.281 48.0962C240.32 48.1737 240.359 48.2512 240.476 48.2899C240.592 48.3675 240.748 48.4062 240.865 48.4062H241.098Z" fill="#1A5FA5"/>
<path d="M246.93 42.2828L247.085 44.3756H246.93C246.736 43.7555 246.463 43.2904 246.113 43.0191C245.764 42.7478 245.336 42.5928 244.869 42.5928C244.442 42.5928 244.092 42.7091 243.742 42.9029C243.431 43.0967 243.159 43.4455 242.964 43.9105C242.77 44.3756 242.692 44.9182 242.692 45.6158C242.692 46.1584 242.77 46.6622 242.964 47.0498C243.12 47.4761 243.392 47.7861 243.781 47.9799C244.131 48.2124 244.558 48.3287 245.025 48.3287C245.414 48.3287 245.764 48.2512 246.075 48.0574C246.386 47.9024 246.736 47.5536 247.085 47.0498L247.241 47.1273C246.93 47.6699 246.58 48.0574 246.152 48.3287C245.725 48.6 245.258 48.7163 244.675 48.7163C243.664 48.7163 242.848 48.3287 242.303 47.5923C241.876 47.011 241.681 46.3522 241.681 45.6158C241.681 44.9957 241.798 44.4531 242.07 43.9105C242.342 43.4067 242.731 43.0191 243.197 42.7091C243.664 42.4378 244.208 42.2828 244.792 42.2828C245.219 42.2828 245.686 42.399 246.113 42.5928C246.23 42.6703 246.308 42.7091 246.386 42.7091C246.463 42.7091 246.541 42.6703 246.619 42.6316C246.697 42.5541 246.736 42.4378 246.774 42.2828H246.93Z" fill="#1A5FA5"/>
<path d="M251.829 46.5072H249.418L248.991 47.4761C248.874 47.7086 248.835 47.9024 248.835 48.0187C248.835 48.0962 248.874 48.1737 248.991 48.2512C249.068 48.3287 249.263 48.3675 249.574 48.4062V48.5612H247.63V48.4062C247.902 48.3675 248.058 48.29 248.135 48.2124C248.291 48.0574 248.446 47.7861 248.641 47.3211L250.818 42.2828H250.974L253.112 47.3986C253.267 47.8249 253.423 48.0574 253.579 48.2124C253.734 48.3287 253.928 48.4062 254.162 48.4062V48.5612H251.751V48.4062C251.984 48.4062 252.14 48.3675 252.257 48.29C252.334 48.2124 252.373 48.1349 252.373 48.0187C252.373 47.9024 252.295 47.6699 252.179 47.3986L251.829 46.5072ZM251.673 46.1971L250.624 43.7167L249.535 46.1971H251.673Z" fill="#1A5FA5"/>
<path d="M78.2275 52.5919V62.1258H254.317V52.5919H78.2275Z" fill="#F7B724"/>
<path d="M110.848 60.4206H102.256V60.033C102.411 60.033 102.567 59.9943 102.8 59.9943C102.994 59.9943 103.15 59.9555 103.228 59.9167C103.383 59.878 103.5 59.8005 103.539 59.723C103.616 59.6455 103.616 59.5292 103.616 59.4129V54.6459C103.616 54.5297 103.578 54.4522 103.539 54.3746C103.5 54.2971 103.383 54.2196 103.189 54.1809C103.033 54.1421 102.878 54.1033 102.683 54.0646C102.489 54.0646 102.333 54.0258 102.217 53.9871V53.6383H107.349V53.9871C107.232 53.9871 107.038 54.0258 106.844 54.0258C106.649 54.0258 106.494 54.0646 106.338 54.1034C106.144 54.1421 106.066 54.2196 105.988 54.2971C105.949 54.3746 105.91 54.4909 105.91 54.6072V59.0254C105.91 59.2579 105.949 59.4129 105.949 59.5292C105.988 59.6455 106.066 59.723 106.183 59.8005C106.299 59.878 106.455 59.9167 106.688 59.9167C106.882 59.9167 107.155 59.9555 107.543 59.9555C107.893 59.9555 108.243 59.9555 108.554 59.9167C108.865 59.878 109.138 59.8005 109.293 59.723C109.526 59.5679 109.76 59.3354 109.993 59.0254C110.226 58.7153 110.421 58.4828 110.576 58.2115H111.043L110.848 60.4206Z" fill="#1A5FA5"/>
<path d="M122.279 54.0646C122.162 54.0646 121.968 54.1034 121.735 54.1034C121.502 54.1421 121.307 54.2196 121.113 54.2971C120.957 54.3746 120.841 54.5297 120.763 54.7234C120.724 54.9172 120.646 55.2273 120.646 55.6536V58.1727C120.646 58.9091 120.296 59.4904 119.596 59.9555C118.897 60.4206 118.002 60.6144 116.836 60.6144C115.514 60.6144 114.464 60.3818 113.725 59.9555C112.987 59.5292 112.637 58.9091 112.637 58.134V54.6847C112.637 54.5684 112.598 54.4909 112.559 54.4134C112.52 54.3359 112.403 54.2584 112.209 54.2196C112.092 54.1809 111.937 54.1421 111.781 54.1034C111.626 54.0646 111.47 54.0646 111.393 54.0258V53.677H116.253V54.0258C116.097 54.0258 115.98 54.0646 115.825 54.0646C115.669 54.0646 115.553 54.1033 115.397 54.1421C115.242 54.1809 115.125 54.2584 115.047 54.3359C114.97 54.4134 114.97 54.5297 114.97 54.6459V58.0177C114.97 58.6766 115.164 59.1804 115.592 59.4904C115.98 59.8005 116.603 59.9555 117.38 59.9555C118.119 59.9555 118.741 59.7617 119.169 59.4517C119.596 59.1029 119.83 58.6378 119.83 57.9789V55.6923C119.83 55.266 119.791 54.9947 119.713 54.801C119.635 54.6072 119.519 54.4522 119.363 54.3746C119.246 54.2971 119.052 54.2584 118.741 54.1809C118.469 54.1033 118.274 54.1033 118.158 54.0646V53.677H122.24V54.0646H122.279Z" fill="#1A5FA5"/>
<path d="M135.576 60.4206H130.522V60.033C130.677 60.033 130.872 59.9943 131.066 59.9943C131.299 59.9555 131.416 59.9555 131.494 59.9167C131.649 59.878 131.766 59.8005 131.844 59.723C131.921 59.6455 131.921 59.5292 131.921 59.4129V54.3746L128.733 60.3043H127.917C127.878 60.188 127.761 59.9943 127.606 59.6842C127.45 59.3742 127.334 59.1416 127.217 58.9478L124.845 54.2971V58.4053C124.845 58.7928 124.884 59.1029 124.962 59.2966C125.04 59.4904 125.156 59.6455 125.312 59.7617C125.428 59.8392 125.623 59.878 125.895 59.9555C126.167 60.033 126.362 60.033 126.478 60.0718V60.4593H122.435V60.0718C122.551 60.0718 122.707 60.033 122.979 59.9943C123.212 59.9555 123.446 59.9167 123.562 59.8005C123.757 59.723 123.873 59.5679 123.912 59.3742C123.99 59.1416 123.99 58.8703 123.99 58.4828V55.1498C123.99 54.956 123.951 54.7622 123.873 54.6459C123.795 54.4909 123.718 54.4134 123.562 54.3359C123.368 54.2196 123.212 54.1809 123.018 54.1421C122.823 54.1033 122.629 54.1033 122.474 54.0646V53.7158H126.789L129.083 58.1727L131.027 54.5684C131.105 54.4522 131.144 54.2971 131.222 54.1033C131.261 53.9096 131.299 53.7933 131.338 53.7545H135.46V54.1033C135.304 54.1033 135.149 54.1421 135.032 54.1421C134.876 54.1421 134.721 54.1809 134.604 54.2196C134.449 54.2584 134.332 54.3359 134.254 54.4134C134.215 54.4909 134.177 54.6072 134.177 54.7234V59.4904C134.177 59.6067 134.215 59.723 134.254 59.8005C134.332 59.878 134.41 59.9555 134.604 59.9943C134.721 60.033 134.838 60.0718 135.032 60.0718C135.226 60.1105 135.382 60.1105 135.498 60.1105V60.4206H135.576Z" fill="#1A5FA5"/>
<path d="M145.296 60.4206H136.548V60.033C136.665 60.033 136.82 60.033 137.054 59.9943C137.248 59.9555 137.404 59.9555 137.481 59.9167C137.676 59.878 137.754 59.8005 137.831 59.723C137.909 59.6455 137.909 59.5292 137.909 59.4129V54.6459C137.909 54.5297 137.909 54.4522 137.87 54.3746C137.831 54.2971 137.676 54.2196 137.481 54.1809C137.365 54.1421 137.209 54.1033 137.015 54.0646C136.82 54.0258 136.665 54.0258 136.548 53.9871V53.6383H144.83V55.3823H144.324C144.208 55.111 143.974 54.8785 143.663 54.6072C143.352 54.3359 143.041 54.1809 142.73 54.1421C142.575 54.1033 142.419 54.1034 142.186 54.1034C141.953 54.1034 141.758 54.1034 141.603 54.1034H140.242V56.7H141.214C141.447 56.7 141.68 56.6612 141.875 56.6225C142.069 56.5837 142.264 56.5062 142.419 56.39C142.536 56.3124 142.614 56.1962 142.73 56.0024C142.847 55.8086 142.925 55.6536 142.925 55.4986H143.43V58.289H142.925C142.886 58.1727 142.808 57.9789 142.73 57.7852C142.614 57.5914 142.536 57.4751 142.419 57.3976C142.264 57.2813 142.108 57.2038 141.914 57.1651C141.719 57.1263 141.486 57.0876 141.253 57.0876H140.281V59.0254C140.281 59.2191 140.32 59.3742 140.359 59.5292C140.397 59.6455 140.475 59.7617 140.592 59.8005C140.708 59.878 140.864 59.9167 141.058 59.9167C141.253 59.9167 141.486 59.9555 141.836 59.9555C141.992 59.9555 142.186 59.9555 142.38 59.9555C142.575 59.9555 142.769 59.9555 142.925 59.9167C143.119 59.9167 143.275 59.878 143.43 59.8392C143.586 59.8005 143.702 59.7617 143.78 59.6842C143.974 59.5292 144.247 59.2966 144.48 58.9866C144.752 58.6766 144.908 58.444 144.985 58.2502H145.452L145.296 60.4206Z" fill="#1A5FA5"/>
<path d="M156.999 54.0646C156.883 54.0646 156.688 54.0646 156.494 54.1034C156.261 54.1034 156.066 54.1809 155.872 54.2971C155.716 54.3746 155.6 54.5297 155.522 54.7234C155.444 54.956 155.405 55.2273 155.405 55.6536V60.4593H154.239L148.446 55.2273V58.4053C148.446 58.7928 148.485 59.1029 148.562 59.2967C148.64 59.4904 148.757 59.6455 148.912 59.7617C149.029 59.8392 149.223 59.878 149.495 59.9555C149.768 59.9943 149.962 60.033 150.118 60.0718V60.4593H146.074V60.0718C146.23 60.0718 146.463 60.033 146.657 59.9943C146.89 59.9555 147.085 59.9167 147.202 59.8392C147.357 59.7617 147.474 59.6067 147.551 59.4129C147.59 59.2191 147.629 58.9091 147.629 58.4828V55.3048C147.629 55.1498 147.59 54.9947 147.513 54.8397C147.435 54.6847 147.357 54.5684 147.202 54.4522C147.046 54.3359 146.89 54.2584 146.696 54.1809C146.502 54.1034 146.268 54.0646 145.996 54.0258V53.677H149.534L154.589 58.2115V55.6536C154.589 55.266 154.55 54.956 154.472 54.7234C154.394 54.5297 154.278 54.3746 154.122 54.2971C154.006 54.2196 153.811 54.1421 153.578 54.1034C153.306 54.0646 153.111 54.0258 152.956 53.9871V53.6383H156.999V54.0646Z" fill="#1A5FA5"/>
<path d="M171.385 57.6689C171.269 57.6689 171.152 57.7076 171.035 57.7076C170.919 57.7076 170.802 57.7464 170.646 57.7852C170.452 57.8239 170.335 57.9014 170.297 57.9789C170.219 58.0565 170.219 58.1727 170.219 58.289V59.0641C170.219 59.2191 170.219 59.3354 170.219 59.4517C170.219 59.5292 170.219 59.6842 170.219 59.8005C169.791 59.9943 169.13 60.188 168.275 60.3431C167.419 60.4981 166.642 60.5756 165.903 60.5756C165.242 60.5756 164.62 60.4981 163.998 60.3431C163.415 60.188 162.909 59.9555 162.443 59.6842C162.015 59.3742 161.626 59.0254 161.393 58.5603C161.121 58.134 161.004 57.6301 161.004 57.0488C161.004 56.545 161.121 56.0411 161.354 55.6148C161.626 55.1885 161.976 54.7622 162.404 54.4521C162.87 54.1421 163.376 53.8708 164.037 53.7158C164.659 53.522 165.398 53.4445 166.175 53.4445C166.72 53.4445 167.186 53.4832 167.653 53.5995C168.08 53.7158 168.469 53.7933 168.78 53.9096L169.208 53.6383H169.791L169.83 56.0799H169.247C168.897 55.3435 168.508 54.801 168.041 54.4521C167.575 54.1033 166.992 53.9096 166.292 53.9096C165.436 53.9096 164.775 54.1809 164.309 54.6847C163.842 55.2273 163.609 55.9636 163.609 56.8938C163.609 57.9014 163.842 58.6378 164.27 59.2191C164.737 59.8005 165.359 60.0718 166.175 60.0718C166.564 60.0718 166.914 60.033 167.225 59.9555C167.536 59.878 167.769 59.7617 167.925 59.6842V58.3277C167.925 58.2115 167.886 58.134 167.847 58.0565C167.808 57.9789 167.692 57.9014 167.497 57.8627C167.38 57.8239 167.225 57.7852 166.992 57.7464C166.797 57.7076 166.642 57.7076 166.486 57.6689V57.3201H171.346V57.6689H171.385Z" fill="#1A5FA5"/>
<path d="M180.639 60.4206H171.852V60.033C171.968 60.033 172.163 60.033 172.357 59.9943C172.552 59.9555 172.707 59.9555 172.824 59.9167C172.979 59.878 173.096 59.8005 173.174 59.723C173.251 59.6455 173.251 59.5292 173.251 59.4129V54.6459C173.251 54.5297 173.213 54.4522 173.174 54.3746C173.135 54.2971 173.018 54.2196 172.824 54.1809C172.707 54.1421 172.552 54.1033 172.318 54.0646C172.124 54.0258 171.968 54.0258 171.852 53.9871V53.6383H180.133V55.3823H179.628C179.511 55.111 179.278 54.8785 178.967 54.6072C178.656 54.3359 178.345 54.1809 178.034 54.1421C177.917 54.1033 177.723 54.1034 177.489 54.1034C177.256 54.1034 177.062 54.1034 176.906 54.1034H175.545V56.7H176.517C176.751 56.7 176.984 56.6612 177.178 56.6225C177.373 56.5837 177.567 56.5062 177.723 56.39C177.839 56.3124 177.917 56.1962 178.034 56.0024C178.15 55.8086 178.189 55.6536 178.267 55.4986H178.772V58.289H178.267C178.228 58.1727 178.15 57.9789 178.034 57.7852C177.917 57.5914 177.839 57.4751 177.723 57.3976C177.567 57.2813 177.412 57.2038 177.217 57.1651C177.023 57.1263 176.79 57.0876 176.556 57.0876H175.584V59.0254C175.584 59.2191 175.623 59.3742 175.662 59.5292C175.701 59.6455 175.779 59.7617 175.895 59.8005C176.012 59.878 176.167 59.9167 176.362 59.9167C176.556 59.9167 176.79 59.9555 177.139 59.9555C177.295 59.9555 177.489 59.9555 177.684 59.9555C177.878 59.9555 178.073 59.9555 178.267 59.9167C178.423 59.9167 178.617 59.878 178.772 59.8392C178.928 59.8005 179.045 59.7617 179.122 59.6842C179.317 59.5292 179.55 59.2966 179.822 58.9866C180.094 58.6766 180.25 58.444 180.328 58.2502H180.794L180.639 60.4206Z" fill="#1A5FA5"/>
<path d="M192.342 54.0646C192.225 54.0646 192.031 54.0646 191.797 54.1034C191.564 54.1034 191.37 54.1809 191.175 54.2971C191.02 54.3746 190.903 54.5297 190.825 54.7234C190.748 54.956 190.709 55.2273 190.709 55.6536V60.4593H189.542L183.749 55.2273V58.4053C183.749 58.7928 183.788 59.1029 183.866 59.2967C183.944 59.4904 184.06 59.6455 184.216 59.7617C184.332 59.8392 184.527 59.878 184.799 59.9555C185.071 59.9943 185.265 60.033 185.421 60.0718V60.4593H181.377V60.0718C181.533 60.0718 181.766 60.033 181.961 59.9943C182.194 59.9555 182.388 59.9167 182.544 59.8392C182.699 59.7617 182.816 59.6067 182.894 59.4129C182.972 59.2191 183.01 58.9091 183.01 58.4828V55.3048C183.01 55.1498 182.972 54.9947 182.894 54.8397C182.816 54.6847 182.699 54.5684 182.583 54.4522C182.427 54.3359 182.272 54.2584 182.077 54.1809C181.883 54.1034 181.65 54.0646 181.377 54.0258V53.677H184.916L189.97 58.2115V55.6536C189.97 55.266 189.931 54.956 189.853 54.7234C189.776 54.5297 189.659 54.3746 189.503 54.2971C189.387 54.2196 189.192 54.1421 188.959 54.1034C188.726 54.0646 188.493 54.0258 188.337 53.9871V53.6383H192.381V54.0646H192.342Z" fill="#1A5FA5"/>
<path d="M201.595 55.6148H201.09C200.934 55.3435 200.74 55.0335 200.429 54.6847C200.118 54.3746 199.846 54.1809 199.612 54.1421C199.496 54.1421 199.301 54.1034 199.107 54.1034C198.874 54.1034 198.718 54.1034 198.563 54.1034H198.252V59.3742C198.252 59.4904 198.291 59.5679 198.329 59.6842C198.368 59.7617 198.485 59.8392 198.679 59.878C198.757 59.9167 198.951 59.9167 199.146 59.9555C199.34 59.9943 199.535 59.9943 199.69 60.033V60.4206H194.48V60.033C194.597 60.033 194.791 60.033 195.025 59.9943C195.258 59.9555 195.413 59.9555 195.491 59.9167C195.647 59.878 195.763 59.8005 195.841 59.723C195.88 59.6455 195.919 59.5292 195.919 59.4129V54.1034H195.608C195.452 54.1034 195.297 54.1034 195.063 54.1034C194.869 54.1034 194.675 54.1421 194.558 54.1421C194.286 54.1809 194.014 54.3359 193.741 54.6847C193.43 54.9947 193.236 55.3048 193.081 55.6148H192.575V53.677H201.634V55.6148H201.595Z" fill="#1A5FA5"/>
<path d="M207.272 54.0646C207.155 54.0646 206.961 54.1034 206.766 54.1034C206.572 54.1034 206.417 54.1421 206.261 54.1809C206.105 54.2196 205.989 54.2971 205.911 54.3746C205.872 54.4522 205.833 54.5684 205.833 54.6847V59.4517C205.833 59.5679 205.872 59.6842 205.911 59.7617C205.989 59.8392 206.105 59.9167 206.261 59.9555C206.339 59.9943 206.494 60.033 206.728 60.033C206.922 60.0718 207.116 60.0718 207.272 60.0718V60.4593H202.101V60.0718C202.217 60.0718 202.373 60.0718 202.606 60.033C202.839 60.033 202.995 59.9943 203.073 59.9555C203.228 59.9167 203.345 59.8392 203.384 59.7617C203.462 59.6842 203.5 59.5679 203.5 59.4517V54.6847C203.5 54.5684 203.462 54.4909 203.384 54.4134C203.345 54.3359 203.228 54.2584 203.073 54.2196C202.956 54.1809 202.801 54.1421 202.606 54.1034C202.412 54.0646 202.217 54.0646 202.101 54.0258V53.677H207.272V54.0646Z" fill="#1A5FA5"/>
<path d="M218.897 54.0646C218.781 54.0646 218.586 54.1034 218.353 54.1034C218.12 54.1421 217.925 54.2196 217.731 54.2971C217.575 54.3746 217.459 54.5297 217.381 54.7234C217.303 54.9172 217.264 55.2273 217.264 55.6536V58.1727C217.264 58.9091 216.914 59.4904 216.214 59.9555C215.515 60.4206 214.62 60.6144 213.454 60.6144C212.132 60.6144 211.082 60.3818 210.382 59.9555C209.644 59.5292 209.294 58.9091 209.294 58.134V54.6847C209.294 54.5684 209.294 54.4909 209.216 54.4134C209.138 54.3359 209.022 54.2584 208.866 54.2196C208.749 54.1809 208.594 54.1421 208.438 54.1034C208.283 54.0646 208.127 54.0646 208.011 54.0258V53.677H212.91V54.0258C212.754 54.0258 212.637 54.0646 212.482 54.0646C212.326 54.0646 212.21 54.1033 212.054 54.1421C211.899 54.1809 211.782 54.2584 211.704 54.3359C211.665 54.4134 211.627 54.5297 211.627 54.6459V58.0177C211.627 58.6766 211.821 59.1804 212.249 59.4904C212.637 59.8005 213.259 59.9555 213.998 59.9555C214.776 59.9555 215.359 59.7617 215.787 59.4517C216.214 59.1029 216.448 58.6378 216.448 57.9789V55.6923C216.448 55.266 216.409 54.9947 216.331 54.801C216.253 54.6072 216.137 54.4522 215.981 54.3746C215.864 54.2971 215.67 54.2584 215.398 54.1809C215.087 54.1033 214.892 54.1033 214.815 54.0646V53.677H218.897V54.0646Z" fill="#1A5FA5"/>
<path d="M232.233 60.4206H227.14V60.033C227.295 60.033 227.49 59.9943 227.684 59.9943C227.917 59.9555 228.073 59.9555 228.151 59.9167C228.306 59.878 228.423 59.8005 228.501 59.723C228.578 59.6455 228.617 59.5292 228.617 59.4129V54.3746L225.429 60.3043H224.613C224.574 60.188 224.496 59.9943 224.302 59.6842C224.146 59.3742 224.029 59.1416 223.913 58.9478L221.58 54.2971V58.4053C221.58 58.7928 221.619 59.1029 221.697 59.2966C221.774 59.4904 221.891 59.6455 222.046 59.7617C222.163 59.8392 222.357 59.878 222.63 59.9555C222.902 60.033 223.135 60.033 223.213 60.0718V60.4593H219.169V60.0718C219.286 60.0718 219.441 60.033 219.714 59.9943C219.947 59.9555 220.18 59.9167 220.336 59.8005C220.491 59.723 220.608 59.5679 220.686 59.3742C220.763 59.1416 220.763 58.8703 220.763 58.4828V55.1498C220.763 54.956 220.725 54.7622 220.647 54.6459C220.569 54.4909 220.452 54.4134 220.336 54.3359C220.18 54.2196 219.986 54.1809 219.791 54.1421C219.597 54.1033 219.441 54.1033 219.247 54.0646V53.7158H223.563L225.857 58.1727L227.801 54.5684C227.879 54.4522 227.956 54.2971 227.995 54.1033C228.034 53.9096 228.073 53.7933 228.112 53.7545H232.233V54.1033C232.078 54.1033 231.961 54.1421 231.805 54.1421C231.65 54.1421 231.494 54.1809 231.378 54.2196C231.222 54.2584 231.106 54.3359 231.028 54.4134C230.95 54.4909 230.95 54.6072 230.95 54.7234V59.4904C230.95 59.6067 230.989 59.723 231.028 59.8005C231.106 59.878 231.183 59.9555 231.378 59.9943C231.456 60.033 231.611 60.0718 231.805 60.0718C232 60.1105 232.155 60.1105 232.272 60.1105V60.4206H232.233Z" fill="#1A5FA5"/>
</svg>
